<?xml version="1.0" standalone="no"?><!DOCTYPE svg PUBLIC "-//W3C//DTD SVG 1.1//EN" "http://www.w3.org/Graphics/SVG/1.1/DTD/svg11.dtd"><svg t="1554626554369" class="icon" style="" viewBox="0 0 1024 1024" version="1.1" xmlns="http://www.w3.org/2000/svg" p-id="3684" xmlns:xlink="http://www.w3.org/1999/xlink" width="200" height="200"><defs><style type="text/css"></style></defs><path d="M512 594.8c-88.89 0-161.2-70.17-161.2-156.41s72.31-156.4 161.2-156.4 161.2 70.17 161.2 156.41S600.89 594.8 512 594.8z m0-257.61c-57.52 0-104.31 45.41-104.31 101.2S454.48 539.6 512 539.6s104.31-45.41 104.31-101.2S569.52 337.19 512 337.19z" p-id="3685"></path><path d="M512 944.42c-5.5 0-11-1.55-15.79-4.64-14.46-9.36-354.03-232.18-354.03-501.39 0-197.85 165.9-358.82 369.82-358.82S881.82 240.55 881.82 438.4c0 265.88-339.43 491.79-353.88 501.28-4.81 3.16-10.37 4.74-15.94 4.74z m0-809.64c-172.55 0-312.93 136.21-312.93 303.61 0 208.75 247.05 397.88 312.83 444.51 65.7-47.13 313.03-238.37 313.03-444.51 0-167.4-140.38-303.61-312.93-303.61z" p-id="3686"></path></svg>