<?xml version="1.0" standalone="no"?><!DOCTYPE svg PUBLIC "-//W3C//DTD SVG 1.1//EN" "http://www.w3.org/Graphics/SVG/1.1/DTD/svg11.dtd"><svg t="1554626540938" class="icon" style="" viewBox="0 0 1024 1024" version="1.1" xmlns="http://www.w3.org/2000/svg" p-id="3451" xmlns:xlink="http://www.w3.org/1999/xlink" width="200" height="200"><defs><style type="text/css"></style></defs><path d="M810.02 837.99c-7.16 0-14.31-2.73-19.78-8.2L194.21 233.76c-10.93-10.93-10.93-28.63 0-39.56s28.63-10.93 39.56 0L829.8 790.23c10.93 10.93 10.93 28.63 0 39.56a27.888 27.888 0 0 1-19.78 8.2z" p-id="3452"></path><path d="M213.98 837.99c-7.16 0-14.31-2.73-19.78-8.2-10.93-10.93-10.93-28.63 0-39.56L790.23 194.2c10.93-10.93 28.63-10.93 39.56 0 10.93 10.93 10.93 28.63 0 39.56L233.76 829.79c-5.46 5.47-12.62 8.2-19.78 8.2z" p-id="3453"></path></svg>