<?xml version="1.0" standalone="no"?><!DOCTYPE svg PUBLIC "-//W3C//DTD SVG 1.1//EN" "http://www.w3.org/Graphics/SVG/1.1/DTD/svg11.dtd"><svg t="1554626560825" class="icon" style="" viewBox="0 0 1024 1024" version="1.1" xmlns="http://www.w3.org/2000/svg" p-id="3800" xmlns:xlink="http://www.w3.org/1999/xlink" width="200" height="200"><defs><style type="text/css"></style></defs><path d="M468.58 814.72c-190.84 0-346.1-155.25-346.1-346.1s155.25-346.1 346.1-346.1 346.1 155.25 346.1 346.1-155.26 346.1-346.1 346.1z m0-636.07c-159.89 0-289.97 130.08-289.97 289.97s130.08 289.97 289.97 289.97 289.97-130.08 289.97-289.97-130.08-289.97-289.97-289.97z" p-id="3801"></path><path d="M873.46 901.48a27.97 27.97 0 0 1-19.84-8.22L681.5 721.14c-10.96-10.96-10.96-28.72 0-39.68s28.72-10.96 39.68 0L893.3 853.58c10.96 10.96 10.96 28.72 0 39.68a27.97 27.97 0 0 1-19.84 8.22z" p-id="3802"></path></svg>