<?xml version="1.0" standalone="no"?><!DOCTYPE svg PUBLIC "-//W3C//DTD SVG 1.1//EN" "http://www.w3.org/Graphics/SVG/1.1/DTD/svg11.dtd"><svg t="1554626568651" class="icon" style="" viewBox="0 0 1024 1024" version="1.1" xmlns="http://www.w3.org/2000/svg" p-id="4031" xmlns:xlink="http://www.w3.org/1999/xlink" width="200" height="200"><defs><style type="text/css"></style></defs><path d="M512.23 643.07c-71.9 0-130.4-58.5-130.4-130.4s58.5-130.4 130.4-130.4 130.4 58.5 130.4 130.4-58.5 130.4-130.4 130.4z m0-200.62c-38.71 0-70.22 31.5-70.22 70.22 0 38.71 31.5 70.22 70.22 70.22 38.71 0 70.22-31.5 70.22-70.22-0.01-38.72-31.51-70.22-70.22-70.22z" p-id="4032"></path><path d="M531.84 942.67h-40.12c-36.17 0-63.6-25.72-69.85-65.54-1.43-9.09-5.66-26.86-11.87-49.93-17.38-5.69-34.42-12.93-50.98-21.64-16.91 11.22-34.27 22.81-42.3 28.41-32.35 22.55-70.61 21.19-95.22-3.4l-28.37-28.39c-25.59-25.57-26.78-63.14-3.06-95.74 5.45-7.46 15.28-23.46 27.15-44.1-8.15-16.11-15.03-33.12-20.55-50.86-20.02-4.04-40.73-8.16-50.41-9.89-38.83-6.94-64.93-34.96-64.93-69.75v-40.12c0-36.18 25.72-63.6 65.55-69.86 9.09-1.43 27.51-5.83 50.74-12.09 5.64-17.1 12.75-33.84 21.28-50.04-11.36-17.12-23.2-34.85-28.88-43-22.57-32.37-21.2-70.64 3.41-95.24l28.37-28.36c25.57-25.58 63.18-26.8 95.75-3.05 7.52 5.48 23.88 15.52 45.1 27.72 16.07-8.19 32.7-15.03 49.7-20.43 4.09-20.23 8.29-41.32 10.05-51.13 6.92-38.82 34.95-64.92 69.75-64.92h40.12c36.19 0 63.6 25.72 69.85 65.54 1.45 9.19 5.8 27.43 12.23 51.23 16.93 5.53 33.56 12.54 49.72 20.94 17.18-11.41 35.01-23.32 43.22-29.03 32.35-22.58 70.61-21.18 95.2 3.42l28.37 28.37c25.59 25.58 26.78 63.15 3.06 95.75-5.49 7.52-15.2 23.31-27.29 44.34 8.19 16.05 15.13 32.98 20.73 50.63 20 4.05 40.69 8.16 50.37 9.89 38.83 6.94 64.93 34.96 64.93 69.75v40.12c0 36.18-25.72 63.6-65.55 69.86-9.13 1.43-26.96 5.68-50.1 11.9-5.62 17.37-12.81 34.41-21.45 50.96 11.23 16.89 22.81 34.24 28.41 42.27 22.57 32.36 21.2 70.63-3.41 95.23l-28.37 28.37c-25.61 25.59-63.18 26.74-95.75 3.06-7.41-5.41-22.9-14.94-43.51-26.82-16.32 8.34-33.58 15.35-51.61 20.98-4 19.78-8.03 40.08-9.74 49.64-6.91 38.85-34.95 64.95-69.74 64.95zM357.72 740.22c5.35 0 10.72 1.42 15.48 4.29 22.1 13.25 45.37 23.19 69.16 29.53a30.1 30.1 0 0 1 21.24 20.99c6.58 23.66 15.01 55.48 17.71 72.75 1.06 6.7 3.72 14.69 10.4 14.69h40.12c7.54 0 10.23-13.74 10.5-15.31 2.27-12.79 8.64-44.47 13.66-69.05 2.31-11.31 10.89-20.32 22.08-23.16 25.25-6.4 48.8-15.92 70.02-28.3 9.21-5.38 20.63-5.5 29.96-0.22 21.34 12.04 49.72 28.55 63.83 38.82 5.49 4 13.01 7.8 17.75 3.05L788 759.95c5.33-5.34-2.51-16.96-3.41-18.26-7.48-10.75-25.47-37.76-39.34-58.72-6.37-9.64-6.68-22.08-0.76-32 13.17-22.13 23.04-45.4 29.31-69.19a30.093 30.093 0 0 1 21.02-21.31c23.71-6.61 55.6-15.06 72.94-17.79h0.02c6.7-1.05 14.69-3.71 14.69-10.39v-40.12c0-7.54-13.75-10.22-15.32-10.5-12.91-2.3-45-8.77-69.67-13.77a30.067 30.067 0 0 1-23.14-21.99c-6.41-24.86-15.89-48.12-28.15-69.12a30.086 30.086 0 0 1-0.24-29.97c12.21-21.64 28.92-50.43 39.3-64.68 4-5.5 7.78-13.03 3.06-17.76L759.95 236c-5.29-5.3-16.93 2.5-18.24 3.41-10.93 7.6-38.58 25.99-59.66 39.93-9.6 6.37-22 6.67-31.93 0.78-21.77-12.9-44.69-22.61-68.12-28.86a30.1 30.1 0 0 1-21.24-20.99c-6.74-24.22-15.36-56.71-18.06-74.06-1.06-6.7-3.72-14.69-10.4-14.69h-40.12c-7.54 0-10.23 13.74-10.5 15.31-2.33 13.08-8.89 45.71-13.95 70.46-2.31 11.31-10.89 20.32-22.08 23.16-23.69 6-46.67 15.37-68.32 27.85a30.211 30.211 0 0 1-29.8 0.15c-21.86-12.32-50.98-29.21-65.38-39.71-5.54-4.01-13.07-7.77-17.77-3.05L236 264.05c-5.33 5.34 2.49 16.95 3.41 18.25 7.58 10.88 25.92 38.47 39.85 59.53 6.41 9.67 6.68 22.16 0.71 32.1-13.03 21.69-22.86 44.66-29.23 68.27a30.11 30.11 0 0 1-20.96 21.16c-23.86 6.66-55.99 15.19-73.53 17.96-6.72 1.05-14.71 3.71-14.71 10.39v40.12c0 7.54 13.75 10.22 15.32 10.5 12.91 2.3 45.12 8.79 69.81 13.81a30.055 30.055 0 0 1 23.18 22.12c6.31 24.98 15.67 48.31 27.86 69.37 5.35 9.22 5.41 20.56 0.18 29.84-9.87 17.54-28.09 49.24-39.13 64.4-4 5.5-7.78 13.03-3.06 17.74L264.05 788c5.37 5.4 16.97-2.51 18.26-3.41 10.74-7.49 37.81-25.49 58.8-39.38a30.115 30.115 0 0 1 16.61-4.99z" p-id="4033"></path></svg>