<svg id="icon-twitter" viewBox="0 0 1024 1024" width="100%" height="100%">
    <path d="M1023.8 284.2c-0.2-16.3-0.3-23-0.4-30.7-0.4-23-1.9-46.2-5.8-67-4.3-22.6-10-43.2-20.5-63.8-10.6-20.9-25.1-38.9-40.8-55-16.1-15.7-34.2-30.2-55-40.8-20.6-10.4-41.1-16.2-63.8-20.5-20.8-3.9-44-5.4-67-5.8-7.7-0.1-14.4-0.2-30.7-0.4C724.2 0.1 711.5 0 702.1 0c-47.6 0-332.6 0-380.3 0-9.4 0-22.1 0.1-37.6 0.2-16.3 0.2-23 0.3-30.7 0.4-23 0.4-46.2 1.9-67 5.8-22.6 4.3-43.2 10-63.8 20.5-20.9 10.6-38.9 25.1-55 40.8-15.7 16.1-30.2 34.2-40.8 55-10.4 20.6-16.2 41.1-20.5 63.8-3.9 20.8-5.4 44-5.8 67-0.1 7.7-0.2 14.4-0.4 30.7C0.1 299.8 0 312.5 0 321.9l0 380.3c0 9.4 0.1 22.1 0.2 37.6 0.2 16.3 0.3 23 0.4 30.7 0.4 23 1.9 46.2 5.8 67 4.3 22.6 10 43.2 20.5 63.8 10.6 20.9 25.1 38.9 40.8 55 16.1 15.7 34.2 30.2 55 40.8 20.6 10.4 41.1 16.2 63.8 20.5 20.8 3.9 44 5.4 67 5.8 7.7 0.1 14.4 0.2 30.7 0.4 15.5 0.1 28.2 0.2 37.6 0.2 47.6 0 332.6 0 380.3 0 9.4 0 22.1-0.1 37.6-0.2 16.3-0.2 23-0.3 30.7-0.4 23-0.4 46.2-1.9 67-5.8 22.6-4.3 43.2-10 63.8-20.5 20.9-10.6 38.9-25.1 55-40.8 15.7-16.1 30.2-34.2 40.8-55 10.4-20.6 16.2-41.1 20.5-63.8 3.9-20.8 5.4-44 5.8-67 0.1-7.7 0.2-14.4 0.4-30.7 0.1-15.5 0.2-28.2 0.2-37.6L1023.9 321.9C1024 312.5 1023.9 299.8 1023.8 284.2zM807 363.3C803.6 620.6 639 796.9 393.4 808c-101.3 4.6-174.7-28.1-238.6-68.7 74.9 12 167.7-18 217.4-60.5-73.4-7.2-116.8-44.5-137.2-104.6 21.2 3.7 43.5 2.7 63.7-1.6-66.2-22.2-113.5-63.1-116-148.9 18.6 8.5 38 16.4 63.7 18-49.6-28.2-86.2-131.2-44.2-199.4 73.6 80.7 162.1 146.5 307.4 155.4C473.1 241.8 679.8 157.2 766.2 262c36.6-7.1 66.3-20.9 94.9-36-11.8 36.2-34.5 61.5-62.1 81.8 30.4-4.1 57.2-11.5 80.2-22.9C865 314.4 833.8 341 807 363.3z"></path>
</svg>